<svg xmlns="http://www.w3.org/2000/svg" viewBox="0 -0.5 17 17" shape-rendering="crispEdges">
<metadata>Made with Pixels to Svg https://codepen.io/shshaw/pen/XbxvNj</metadata>
<path stroke="#ffffff" d="M0 0h17M0 1h17M0 2h9M10 2h7M0 3h7M10 3h7M0 4h5M10 4h7M0 5h4M10 5h7M0 6h5M10 6h7M0 7h7M10 7h7M0 8h9M10 8h7M0 9h9M10 9h7M0 10h9M10 10h7M0 11h9M10 11h7M0 12h8M11 12h6M0 13h7M12 13h5M0 14h5M14 14h3M0 15h17M0 16h17" />
<path stroke="#ed1c24" d="M9 2h1M7 3h3M5 4h5M4 5h6M5 6h5M7 7h3M9 8h1" />
<path stroke="#000000" d="M9 9h1M9 10h1M9 11h1M8 12h3M7 13h5M5 14h9" />
</svg>