<svg xmlns="http://www.w3.org/2000/svg" viewBox="0 -0.5 17 17" shape-rendering="crispEdges">
<metadata>Made with Pixels to Svg https://codepen.io/shshaw/pen/XbxvNj</metadata>
<path stroke="#ffffff" d="M0 0h17M0 1h17M0 2h8M9 2h8M0 3h8M9 3h8M0 4h4M5 4h1M11 4h1M13 4h4M0 5h5M12 5h5M0 6h4M6 6h2M13 6h4M0 7h4M6 7h2M13 7h4M0 8h2M15 8h2M0 9h4M13 9h4M0 10h4M13 10h4M0 11h5M12 11h5M0 12h4M5 12h1M11 12h1M13 12h4M0 13h8M9 13h8M0 14h8M9 14h8M0 15h17M0 16h17" />
<path stroke="#000000" d="M8 2h1M8 3h1M4 4h1M6 4h5M12 4h1M5 5h7M4 6h2M8 6h5M4 7h2M8 7h5M2 8h13M4 9h9M4 10h9M5 11h7M4 12h1M6 12h5M12 12h1M8 13h1M8 14h1" />
</svg>