<svg xmlns="http://www.w3.org/2000/svg" viewBox="0 -0.5 232 232" shape-rendering="crispEdges">
<metadata>Made with Pixels to Svg https://codepen.io/shshaw/pen/XbxvNj</metadata>
<path stroke="#808080" d="M0 0h232M0 1h232M0 2h232M0 3h232M0 4h232M0 5h232M0 6h232M0 7h232M0 8h232M0 9h232M0 10h232M0 11h232M0 12h14M0 13h14M2 14h10M13 14h1M2 15h10M2 16h10M2 17h10M2 18h10M2 19h10M2 20h10M2 21h10M2 22h10M2 23h10M2 24h10M2 25h10M2 26h10M2 27h10M2 28h10M2 29h10M2 30h10M2 31h10M2 32h10M2 33h10M2 34h10M2 35h10M2 36h10M2 37h10M2 38h10M2 39h10M2 40h10M2 41h10M2 42h10M2 43h10M2 44h10M2 45h10M2 46h10M2 47h10M2 48h10M2 49h10M2 50h10M2 51h10M2 52h10M2 53h10M2 54h10M2 55h10M2 56h10M2 57h10M2 58h10M2 59h10M2 60h10M2 61h10M2 62h10M2 63h10M2 64h10M2 65h10M2 66h10M2 67h10M2 68h10M2 69h10M2 70h10M2 71h10M2 72h10M2 73h10M2 74h10M2 75h10M2 76h10M2 77h10M2 78h10M2 79h10M2 80h10M2 81h10M2 82h10M2 83h10M2 84h10M2 85h10M2 86h10M2 87h10M2 88h10M2 89h10M2 90h10M2 91h10M2 92h10M2 93h10M2 94h10M2 95h10M2 96h10M2 97h10M2 98h10M2 99h10M2 100h10M2 101h10M2 102h10M2 103h10M2 104h10M2 105h10M2 106h10M2 107h10M2 108h10M2 109h10M2 110h10M2 111h10M2 112h10M2 113h10M2 114h10M2 115h10M2 116h10M2 117h10M2 118h10M2 119h10M2 120h10M2 121h10M2 122h10M2 123h10M2 124h10M2 125h10M2 126h10M2 127h10M2 128h10M2 129h10M2 130h10M2 131h10M2 132h10M2 133h10M2 134h10M2 135h10M2 136h10M2 137h10M2 138h10M2 139h10M2 140h10M2 141h10M2 142h10M2 143h10M2 144h10M2 145h10M2 146h10M2 147h10M2 148h10M2 149h10M2 150h10M2 151h10M2 152h10M2 153h10M2 154h10M2 155h10M2 156h10M2 157h10M2 158h10M2 159h10M2 160h10M2 161h10M2 162h10M2 163h10M2 164h10M2 165h10M2 166h10M2 167h10M2 168h10M2 169h10M2 170h10M2 171h10M2 172h10M2 173h10M2 174h10M2 175h10M2 176h10M2 177h10M2 178h10M2 179h10M2 180h10M2 181h10M2 182h10M2 183h10M2 184h10M2 185h10M2 186h10M2 187h10M2 188h10M2 189h10M2 190h10M2 191h10M2 192h10M2 193h10M2 194h10M2 195h10M2 196h10M2 197h10M2 198h10M2 199h10M2 200h10M2 201h10M2 202h10M2 203h10M2 204h10M2 205h10M2 206h10M2 207h10M2 208h10M2 209h10M2 210h10M2 211h10M2 212h10M2 213h10M2 214h10M2 215h10M2 216h10M2 217h10M2 218h10M2 219h10M2 220h10M2 221h10M2 222h10M2 223h10M2 224h10M2 225h10M2 226h10M2 227h10M2 228h10M2 229h10M2 230h10M2 231h10" />
<path stroke="#7f7f7f" d="M14 12h1M14 13h1M12 14h1M13 15h1M13 16h1M13 17h1M13 18h1M13 19h1M13 20h1M13 21h1M13 22h1M13 23h1M13 24h1M13 25h1M13 26h1M13 27h1M13 28h1M13 29h1M13 30h1M13 31h1M13 32h1M13 33h1M13 34h1M13 35h1M13 36h1M13 37h1M13 38h1M13 39h1M13 40h1M13 41h1M13 42h1M13 43h1M13 44h1M13 45h1M13 46h1M13 47h1M13 48h1M13 49h1M13 50h1M13 51h1M13 52h1M13 53h1M13 54h1M13 55h1M13 56h1M13 57h1M13 58h1M13 59h1M13 60h1M13 61h1M13 62h1M13 63h1M13 64h1M13 65h1M13 66h1M13 67h1M13 68h1M13 69h1M13 70h1M13 71h1M13 72h1M13 73h1M13 74h1M13 75h1M13 76h1M13 77h1M13 78h1M13 79h1M13 80h1M13 81h1M13 82h1M13 83h1M13 84h1M13 85h1M13 86h1M13 87h1M13 88h1M13 89h1M13 90h1M13 91h1M13 92h1M13 93h1M13 94h1M13 95h1M13 96h1M13 97h1M13 98h1M13 99h1M13 100h1M13 101h1M13 102h1M13 103h1M13 104h1M13 105h1M13 106h1M13 107h1M13 108h1M13 109h1M13 110h1M13 111h1M13 112h1M13 113h1M13 114h1M13 115h1M13 116h1M13 117h1M13 118h1M13 119h1M13 120h1M13 121h1M13 122h1M13 123h1M13 124h1M13 125h1M13 126h1M13 127h1M13 128h1M13 129h1M13 130h1M13 131h1M13 132h1M13 133h1M13 134h1M13 135h1M13 136h1M13 137h1M13 138h1M13 139h1M13 140h1M13 141h1M13 142h1M13 143h1M13 144h1M13 145h1M13 146h1M13 147h1M13 148h1M13 149h1M13 150h1M13 151h1M13 152h1M13 153h1M13 154h1M13 155h1M13 156h1M13 157h1M13 158h1M13 159h1M13 160h1M13 161h1M13 162h1M13 163h1M13 164h1M13 165h1M13 166h1M13 167h1M13 168h1M13 169h1M13 170h1M13 171h1M13 172h1M13 173h1M13 174h1M13 175h1M13 176h1M13 177h1M13 178h1M13 179h1M13 180h1M13 181h1M13 182h1M13 183h1M13 184h1M13 185h1M13 186h1M13 187h1M13 188h1M13 189h1M13 190h1M13 191h1M13 192h1M13 193h1M13 194h1M13 195h1M13 196h1M13 197h1M13 198h1M13 199h1M13 200h1M13 201h1M13 202h1M13 203h1M13 204h1M13 205h1M13 206h1M13 207h1M13 208h1M13 209h1M13 210h1M13 211h1M13 212h1M13 213h1M13 214h1M13 215h1M13 216h1M13 217h1M13 218h1M13 219h1M13 220h1M13 221h1M13 222h1M13 223h1M13 224h1M13 225h1M13 226h1M13 227h1M13 228h1M13 229h1M13 230h1M13 231h1" />
<path stroke="#7d7d7d" d="M15 12h217M15 13h217M12 15h1M12 17h1M12 18h1M12 19h1M12 20h1M12 21h1M12 22h1M12 23h1M12 24h1M12 25h1M12 26h1M12 27h1M12 28h1M12 29h1M12 30h1M12 31h1M12 32h1M12 33h1M12 34h1M12 35h1M12 36h1M12 37h1M12 38h1M12 39h1M12 40h1M12 41h1M12 42h1M12 43h1M12 44h1M12 45h1M12 46h1M12 47h1M12 48h1M12 49h1M12 50h1M12 51h1M12 52h1M12 53h1M12 54h1M12 55h1M12 56h1M12 57h1M12 58h1M12 59h1M12 60h1M12 61h1M12 62h1M12 63h1M12 64h1M12 65h1M12 66h1M12 67h1M12 68h1M12 69h1M12 70h1M12 71h1M12 72h1M12 73h1M12 74h1M12 75h1M12 76h1M12 77h1M12 78h1M12 79h1M12 80h1M12 81h1M12 82h1M12 83h1M12 84h1M12 85h1M12 86h1M12 87h1M12 88h1M12 89h1M12 90h1M12 91h1M12 92h1M12 93h1M12 94h1M12 95h1M12 96h1M12 97h1M12 98h1M12 99h1M12 100h1M12 101h1M12 102h1M12 103h1M12 104h1M12 105h1M12 106h1M12 107h1M12 108h1M12 109h1M12 110h1M12 111h1M12 112h1M12 113h1M12 114h1M12 115h1M12 116h1M12 117h1M12 118h1M12 119h1M12 120h1M12 121h1M12 122h1M12 123h1M12 124h1M12 125h1M12 126h1M12 127h1M12 128h1M12 129h1M12 130h1M12 131h1M12 132h1M12 133h1M12 134h1M12 135h1M12 136h1M12 137h1M12 138h1M12 139h1M12 140h1M12 141h1M12 142h1M12 143h1M12 144h1M12 145h1M12 146h1M12 147h1M12 148h1M12 149h1M12 150h1M12 151h1M12 152h1M12 153h1M12 154h1M12 155h1M12 156h1M12 157h1M12 158h1M12 159h1M12 160h1M12 161h1M12 162h1M12 163h1M12 164h1M12 165h1M12 166h1M12 167h1M12 168h1M12 169h1M12 170h1M12 171h1M12 172h1M12 173h1M12 174h1M12 175h1M12 176h1M12 177h1M12 178h1M12 179h1M12 180h1M12 181h1M12 182h1M12 183h1M12 184h1M12 185h1M12 186h1M12 187h1M12 188h1M12 189h1M12 190h1M12 191h1M12 192h1M12 193h1M12 194h1M12 195h1M12 196h1M12 197h1M12 198h1M12 199h1M12 200h1M12 201h1M12 202h1M12 203h1M12 204h1M12 205h1M12 206h1M12 207h1M12 208h1M12 209h1M12 210h1M12 211h1M12 212h1M12 213h1M12 214h1M12 215h1M12 216h1M12 217h1M12 218h1M12 219h1M12 220h1M12 221h1M12 222h1M12 223h1M12 224h1M12 225h1M12 226h1M12 227h1M12 228h1M12 229h1M12 230h1" />
<path stroke="#838383" d="M0 14h1" />
<path stroke="#7e7e7e" d="M1 14h1" />
<path stroke="#8f8f8f" d="M14 14h1" />
<path stroke="#9c9c9c" d="M15 14h1" />
<path stroke="#9d9d9d" d="M16 14h1" />
<path stroke="#9b9b9b" d="M17 14h215" />
<path stroke="#868686" d="M0 15h1M0 17h1M0 18h1M0 19h1M0 20h1M0 21h1M0 22h1M0 23h1M0 24h1M0 25h1M0 26h1M0 27h1M0 28h1M0 29h1M0 30h1M0 31h1M0 32h1M0 33h1M0 34h1M0 35h1M0 36h1M0 37h1M0 38h1M0 39h1M0 40h1M0 41h1M0 42h1M0 43h1M0 44h1M0 45h1M0 46h1M0 47h1M0 48h1M0 49h1M0 50h1M0 51h1M0 52h1M0 53h1M0 54h1M0 55h1M0 56h1M0 57h1M0 58h1M0 59h1M0 60h1M0 61h1M0 62h1M0 63h1M0 64h1M0 65h1M0 66h1M0 67h1M0 68h1M0 69h1M0 70h1M0 71h1M0 72h1M0 73h1M0 74h1M0 75h1M0 76h1M0 77h1M0 78h1M0 79h1M0 80h1M0 81h1M0 82h1M0 83h1M0 84h1M0 85h1M0 86h1M0 87h1M0 88h1M0 89h1M0 90h1M0 91h1M0 92h1M0 93h1M0 94h1M0 95h1M0 96h1M0 97h1M0 98h1M0 99h1M0 100h1M0 101h1M0 102h1M0 103h1M0 104h1M0 105h1M0 106h1M0 107h1M0 108h1M0 109h1M0 110h1M0 111h1M0 112h1M0 113h1M0 114h1M0 115h1M0 116h1M0 117h1M0 118h1M0 119h1M0 120h1M0 121h1M0 122h1M0 123h1M0 124h1M0 125h1M0 126h1M0 127h1M0 128h1M0 129h1M0 130h1M0 131h1M0 132h1M0 133h1M0 134h1M0 135h1M0 136h1M0 137h1M0 138h1M0 139h1M0 140h1M0 141h1M0 142h1M0 143h1M0 144h1M0 145h1M0 146h1M0 147h1M0 148h1M0 149h1M0 150h1M0 151h1M0 152h1M0 153h1M0 154h1M0 155h1M0 156h1M0 157h1M0 158h1M0 159h1M0 160h1M0 161h1M0 162h1M0 163h1M0 164h1M0 165h1M0 166h1M0 167h1M0 168h1M0 169h1M0 170h1M0 171h1M0 172h1M0 173h1M0 174h1M0 175h1M0 176h1M0 177h1M0 178h1M0 179h1M0 180h1M0 181h1M0 182h1M0 183h1M0 184h1M0 185h1M0 186h1M0 187h1M0 188h1M0 189h1M0 190h1M0 191h1M0 192h1M0 193h1M0 194h1M0 195h1M0 196h1M0 197h1M0 198h1M0 199h1M0 200h1M0 201h1M0 202h1M0 203h1M0 204h1M0 205h1M0 206h1M0 207h1M0 208h1M0 209h1M0 210h1M0 211h1M0 212h1M0 213h1M0 214h1M0 215h1M0 216h1M0 217h1M0 218h1M0 219h1M0 220h1M0 221h1M0 222h1M0 223h1M0 224h1M0 225h1M0 226h1M0 227h1M0 228h1M0 229h1M0 230h1" />
<path stroke="#7b7b7b" d="M1 15h1M1 16h1M1 17h1M1 18h1M1 19h1M1 20h1M1 21h1M1 22h1M1 23h1M1 24h1M1 25h1M1 26h1M1 27h1M1 28h1M1 29h1M1 30h1M1 31h1M1 32h1M1 33h1M1 34h1M1 35h1M1 36h1M1 37h1M1 38h1M1 39h1M1 40h1M1 41h1M1 42h1M1 43h1M1 44h1M1 45h1M1 46h1M1 47h1M1 48h1M1 49h1M1 50h1M1 51h1M1 52h1M1 53h1M1 54h1M1 55h1M1 56h1M1 57h1M1 58h1M1 59h1M1 60h1M1 61h1M1 62h1M1 63h1M1 64h1M1 65h1M1 66h1M1 67h1M1 68h1M1 69h1M1 70h1M1 71h1M1 72h1M1 73h1M1 74h1M1 75h1M1 76h1M1 77h1M1 78h1M1 79h1M1 80h1M1 81h1M1 82h1M1 83h1M1 84h1M1 85h1M1 86h1M1 87h1M1 88h1M1 89h1M1 90h1M1 91h1M1 92h1M1 93h1M1 94h1M1 95h1M1 96h1M1 97h1M1 98h1M1 99h1M1 100h1M1 101h1M1 102h1M1 103h1M1 104h1M1 105h1M1 106h1M1 107h1M1 108h1M1 109h1M1 110h1M1 111h1M1 112h1M1 113h1M1 114h1M1 115h1M1 116h1M1 117h1M1 118h1M1 119h1M1 120h1M1 121h1M1 122h1M1 123h1M1 124h1M1 125h1M1 126h1M1 127h1M1 128h1M1 129h1M1 130h1M1 131h1M1 132h1M1 133h1M1 134h1M1 135h1M1 136h1M1 137h1M1 138h1M1 139h1M1 140h1M1 141h1M1 142h1M1 143h1M1 144h1M1 145h1M1 146h1M1 147h1M1 148h1M1 149h1M1 150h1M1 151h1M1 152h1M1 153h1M1 154h1M1 155h1M1 156h1M1 157h1M1 158h1M1 159h1M1 160h1M1 161h1M1 162h1M1 163h1M1 164h1M1 165h1M1 166h1M1 167h1M1 168h1M1 169h1M1 170h1M1 171h1M1 172h1M1 173h1M1 174h1M1 175h1M1 176h1M1 177h1M1 178h1M1 179h1M1 180h1M1 181h1M1 182h1M1 183h1M1 184h1M1 185h1M1 186h1M1 187h1M1 188h1M1 189h1M1 190h1M1 191h1M1 192h1M1 193h1M1 194h1M1 195h1M1 196h1M1 197h1M1 198h1M1 199h1M1 200h1M1 201h1M1 202h1M1 203h1M1 204h1M1 205h1M1 206h1M1 207h1M1 208h1M1 209h1M1 210h1M1 211h1M1 212h1M1 213h1M1 214h1M1 215h1M1 216h1M1 217h1M1 218h1M1 219h1M1 220h1M1 221h1M1 222h1M1 223h1M1 224h1M1 225h1M1 226h1M1 227h1M1 228h1M1 229h1M1 230h1M1 231h1" />
<path stroke="#a2a2a2" d="M14 15h1M14 17h1M14 18h1M14 19h1M14 20h1M14 21h1M14 22h1M14 23h1M14 24h1M14 25h1M14 26h1M14 27h1M14 28h1M14 29h1M14 30h1M14 31h1M14 32h1M14 33h1M14 34h1M14 35h1M14 36h1M14 37h1M14 38h1M14 39h1M14 40h1M14 41h1M14 42h1M14 43h1M14 44h1M14 45h1M14 46h1M14 47h1M14 48h1M14 49h1M14 50h1M14 51h1M14 52h1M14 53h1M14 54h1M14 55h1M14 56h1M14 57h1M14 58h1M14 59h1M14 60h1M14 61h1M14 62h1M14 63h1M14 64h1M14 65h1M14 66h1M14 67h1M14 68h1M14 69h1M14 70h1M14 71h1M14 72h1M14 73h1M14 74h1M14 75h1M14 76h1M14 77h1M14 78h1M14 79h1M14 80h1M14 81h1M14 82h1M14 83h1M14 84h1M14 85h1M14 86h1M14 87h1M14 88h1M14 89h1M14 90h1M14 91h1M14 92h1M14 93h1M14 94h1M14 95h1M14 96h1M14 97h1M14 98h1M14 99h1M14 100h1M14 101h1M14 102h1M14 103h1M14 104h1M14 105h1M14 106h1M14 107h1M14 108h1M14 109h1M14 110h1M14 111h1M14 112h1M14 113h1M14 114h1M14 115h1M14 116h1M14 117h1M14 118h1M14 119h1M14 120h1M14 121h1M14 122h1M14 123h1M14 124h1M14 125h1M14 126h1M14 127h1M14 128h1M14 129h1M14 130h1M14 131h1M14 132h1M14 133h1M14 134h1M14 135h1M14 136h1M14 137h1M14 138h1M14 139h1M14 140h1M14 141h1M14 142h1M14 143h1M14 144h1M14 145h1M14 146h1M14 147h1M14 148h1M14 149h1M14 150h1M14 151h1M14 152h1M14 153h1M14 154h1M14 155h1M14 156h1M14 157h1M14 158h1M14 159h1M14 160h1M14 161h1M14 162h1M14 163h1M14 164h1M14 165h1M14 166h1M14 167h1M14 168h1M14 169h1M14 170h1M14 171h1M14 172h1M14 173h1M14 174h1M14 175h1M14 176h1M14 177h1M14 178h1M14 179h1M14 180h1M14 181h1M14 182h1M14 183h1M14 184h1M14 185h1M14 186h1M14 187h1M14 188h1M14 189h1M14 190h1M14 191h1M14 192h1M14 193h1M14 194h1M14 195h1M14 196h1M14 197h1M14 198h1M14 199h1M14 200h1M14 201h1M14 202h1M14 203h1M14 204h1M14 205h1M14 206h1M14 207h1M14 208h1M14 209h1M14 210h1M14 211h1M14 212h1M14 213h1M14 214h1M14 215h1M14 216h1M14 217h1M14 218h1M14 219h1M14 220h1M14 221h1M14 222h1M14 223h1M14 224h1M14 225h1M14 226h1M14 227h1M14 228h1M14 229h1M14 230h1" />
<path stroke="#c2c2c2" d="M15 15h1M15 17h1M15 18h1M15 19h1M15 20h1M15 21h1M15 22h1M15 23h1M15 24h1M15 25h1M15 26h1M15 27h1M15 28h1M15 29h1M15 30h1M15 31h1M15 32h1M15 33h1M15 34h1M15 35h1M15 36h1M15 37h1M15 38h1M15 39h1M15 40h1M15 41h1M15 42h1M15 43h1M15 44h1M15 45h1M15 46h1M15 47h1M15 48h1M15 49h1M15 50h1M15 51h1M15 52h1M15 53h1M15 54h1M15 55h1M15 56h1M15 57h1M15 58h1M15 59h1M15 60h1M15 61h1M15 62h1M15 63h1M15 64h1M15 65h1M15 66h1M15 67h1M15 68h1M15 69h1M15 70h1M15 71h1M15 72h1M15 73h1M15 74h1M15 75h1M15 76h1M15 77h1M15 78h1M15 79h1M15 80h1M15 81h1M15 82h1M15 83h1M15 84h1M15 85h1M15 86h1M15 87h1M15 88h1M15 89h1M15 90h1M15 91h1M15 92h1M15 93h1M15 94h1M15 95h1M15 96h1M15 97h1M15 98h1M15 99h1M15 100h1M15 101h1M15 102h1M15 103h1M15 104h1M15 105h1M15 106h1M15 107h1M15 108h1M15 109h1M15 110h1M15 111h1M15 112h1M15 113h1M15 114h1M15 115h1M15 116h1M15 117h1M15 118h1M15 119h1M15 120h1M15 121h1M15 122h1M15 123h1M15 124h1M15 125h1M15 126h1M15 127h1M15 128h1M15 129h1M15 130h1M15 131h1M15 132h1M15 133h1M15 134h1M15 135h1M15 136h1M15 137h1M15 138h1M15 139h1M15 140h1M15 141h1M15 142h1M15 143h1M15 144h1M15 145h1M15 146h1M15 147h1M15 148h1M15 149h1M15 150h1M15 151h1M15 152h1M15 153h1M15 154h1M15 155h1M15 156h1M15 157h1M15 158h1M15 159h1M15 160h1M15 161h1M15 162h1M15 163h1M15 164h1M15 165h1M15 166h1M15 167h1M15 168h1M15 169h1M15 170h1M15 171h1M15 172h1M15 173h1M15 174h1M15 175h1M15 176h1M15 177h1M15 178h1M15 179h1M15 180h1M15 181h1M15 182h1M15 183h1M15 184h1M15 185h1M15 186h1M15 187h1M15 188h1M15 189h1M15 190h1M15 191h1M15 192h1M15 193h1M15 194h1M15 195h1M15 196h1M15 197h1M15 198h1M15 199h1M15 200h1M15 201h1M15 202h1M15 203h1M15 204h1M15 205h1M15 206h1M15 207h1M15 208h1M15 209h1M15 210h1M15 211h1M15 212h1M15 213h1M15 214h1M15 215h1M15 216h1M15 217h1M15 218h1M15 219h1M15 220h1M15 221h1M15 222h1M15 223h1M15 224h1M15 225h1M15 226h1M15 227h1M15 228h1M15 229h1M15 230h1M17 231h215" />
<path stroke="#c3c3c3" d="M16 15h1M16 17h1M16 18h1M16 19h1M16 20h1M16 21h1M16 22h1M16 23h1M16 24h1M16 25h1M16 26h1M16 27h1M16 28h1M16 29h1M16 30h1M16 31h1M16 32h1M16 33h1M16 34h1M16 35h1M16 36h1M16 37h1M16 38h1M16 39h1M16 40h1M16 41h1M16 42h1M16 43h1M16 44h1M16 45h1M16 46h1M16 47h1M16 48h1M16 49h1M16 50h1M16 51h1M16 52h1M16 53h1M16 54h1M16 55h1M16 56h1M16 57h1M16 58h1M16 59h1M16 60h1M16 61h1M16 62h1M16 63h1M16 64h1M16 65h1M16 66h1M16 67h1M16 68h1M16 69h1M16 70h1M16 71h1M16 72h1M16 73h1M16 74h1M16 75h1M16 76h1M16 77h1M16 78h1M16 79h1M16 80h1M16 81h1M16 82h1M16 83h1M16 84h1M16 85h1M16 86h1M16 87h1M16 88h1M16 89h1M16 90h1M16 91h1M16 92h1M16 93h1M16 94h1M16 95h1M16 96h1M16 97h1M16 98h1M16 99h1M16 100h1M16 101h1M16 102h1M16 103h1M16 104h1M16 105h1M16 106h1M16 107h1M16 108h1M16 109h1M16 110h1M16 111h1M16 112h1M16 113h1M16 114h1M16 115h1M16 116h1M16 117h1M16 118h1M16 119h1M16 120h1M16 121h1M16 122h1M16 123h1M16 124h1M16 125h1M16 126h1M16 127h1M16 128h1M16 129h1M16 130h1M16 131h1M16 132h1M16 133h1M16 134h1M16 135h1M16 136h1M16 137h1M16 138h1M16 139h1M16 140h1M16 141h1M16 142h1M16 143h1M16 144h1M16 145h1M16 146h1M16 147h1M16 148h1M16 149h1M16 150h1M16 151h1M16 152h1M16 153h1M16 154h1M16 155h1M16 156h1M16 157h1M16 158h1M16 159h1M16 160h1M16 161h1M16 162h1M16 163h1M16 164h1M16 165h1M16 166h1M16 167h1M16 168h1M16 169h1M16 170h1M16 171h1M16 172h1M16 173h1M16 174h1M16 175h1M16 176h1M16 177h1M16 178h1M16 179h1M16 180h1M16 181h1M16 182h1M16 183h1M16 184h1M16 185h1M16 186h1M16 187h1M16 188h1M16 189h1M16 190h1M16 191h1M16 192h1M16 193h1M16 194h1M16 195h1M16 196h1M16 197h1M16 198h1M16 199h1M16 200h1M16 201h1M16 202h1M16 203h1M16 204h1M16 205h1M16 206h1M16 207h1M16 208h1M16 209h1M16 210h1M16 211h1M16 212h1M16 213h1M16 214h1M16 215h1M16 216h1M16 217h1M16 218h1M16 219h1M16 220h1M16 221h1M16 222h1M16 223h1M16 224h1M16 225h1M16 226h1M16 227h1M16 228h1M16 229h1M16 230h1" />
<path stroke="#c0c0c0" d="M17 15h215M17 17h215M17 18h215M17 19h215M17 20h215M17 21h215M17 22h215M17 23h215M17 24h215M17 25h215M17 26h215M17 27h215M17 28h215M17 29h215M17 30h215M17 31h215M17 32h215M17 33h215M17 34h215M17 35h215M17 36h215M17 37h215M17 38h215M17 39h215M17 40h215M17 41h215M17 42h215M17 43h215M17 44h215M17 45h215M17 46h215M17 47h215M17 48h215M17 49h215M17 50h215M17 51h215M17 52h215M17 53h215M17 54h215M17 55h215M17 56h215M17 57h215M17 58h215M17 59h215M17 60h215M17 61h215M17 62h215M17 63h215M17 64h215M17 65h215M17 66h215M17 67h215M17 68h215M17 69h215M17 70h215M17 71h215M17 72h215M17 73h215M17 74h215M17 75h215M17 76h215M17 77h215M17 78h215M17 79h215M17 80h215M17 81h215M17 82h215M17 83h215M17 84h215M17 85h215M17 86h215M17 87h215M17 88h215M17 89h215M17 90h215M17 91h215M17 92h215M17 93h215M17 94h215M17 95h215M17 96h215M17 97h215M17 98h215M17 99h215M17 100h215M17 101h215M17 102h215M17 103h215M17 104h215M17 105h215M17 106h215M17 107h215M17 108h215M17 109h215M17 110h215M17 111h215M17 112h215M17 113h215M17 114h215M17 115h215M17 116h215M17 117h215M17 118h215M17 119h215M17 120h215M17 121h215M17 122h215M17 123h215M17 124h215M17 125h215M17 126h215M17 127h215M17 128h215M17 129h215M17 130h215M17 131h215M17 132h215M17 133h215M17 134h215M17 135h215M17 136h215M17 137h215M17 138h215M17 139h215M17 140h215M17 141h215M17 142h215M17 143h215M17 144h215M17 145h215M17 146h215M17 147h215M17 148h215M17 149h215M17 150h215M17 151h215M17 152h215M17 153h215M17 154h215M17 155h215M17 156h215M17 157h215M17 158h215M17 159h215M17 160h215M17 161h215M17 162h215M17 163h215M17 164h215M17 165h215M17 166h215M17 167h215M17 168h215M17 169h215M17 170h215M17 171h215M17 172h215M17 173h215M17 174h215M17 175h215M17 176h215M17 177h215M17 178h215M17 179h215M17 180h215M17 181h215M17 182h215M17 183h215M17 184h215M17 185h215M17 186h215M17 187h215M17 188h215M17 189h215M17 190h215M17 191h215M17 192h215M17 193h215M17 194h215M17 195h215M17 196h215M17 197h215M17 198h215M17 199h215M17 200h215M17 201h215M17 202h215M17 203h215M17 204h215M17 205h215M17 206h215M17 207h215M17 208h215M17 209h215M17 210h215M17 211h215M17 212h215M17 213h215M17 214h215M17 215h215M17 216h215M17 217h215M17 218h215M17 219h215M17 220h215M17 221h215M17 222h215M17 223h215M17 224h215M17 225h215M17 226h215M17 227h215M17 228h215M17 229h215M17 230h215" />
<path stroke="#878787" d="M0 16h1M0 231h1" />
<path stroke="#7c7c7c" d="M12 16h1M12 231h1" />
<path stroke="#a4a4a4" d="M14 16h1" />
<path stroke="#c6c6c6" d="M15 16h1" />
<path stroke="#c7c7c7" d="M16 16h1" />
<path stroke="#c4c4c4" d="M17 16h215M15 231h1" />
<path stroke="#a3a3a3" d="M14 231h1" />
<path stroke="#c5c5c5" d="M16 231h1" />
</svg>