<svg xmlns="http://www.w3.org/2000/svg" viewBox="0 -0.5 100 100" shape-rendering="crispEdges">
<metadata>Made with Pixels to Svg https://codepen.io/shshaw/pen/XbxvNj</metadata>
<path stroke="#c4b2bf" d="M0 0h1" />
<path stroke="#cbbdc8" d="M1 0h1" />
<path stroke="#d1c2cd" d="M2 0h1" />
<path stroke="#d2c2ce" d="M3 0h1" />
<path stroke="#d1c2ce" d="M4 0h95" />
<path stroke="#d6c7d2" d="M99 0h1" />
<path stroke="#dacdd7" d="M0 1h1" />
<path stroke="#f7f2f6" d="M1 1h1M97 1h1" />
<path stroke="#f7f1f5" d="M2 1h1" />
<path stroke="#f6f1f5" d="M3 1h94M4 96h1" />
<path stroke="#f8f3f7" d="M98 1h1" />
<path stroke="#f0e7ed" d="M99 1h1" />
<path stroke="#ddd1db" d="M0 2h1" />
<path stroke="#fffeff" d="M1 2h1" />
<path stroke="#fefefe" d="M2 2h1M96 2h1" />
<path stroke="#fefdfe" d="M3 2h93M1 3h1M1 4h1M1 5h1M5 5h1M1 6h1M4 6h1M1 7h1M1 8h1M1 9h1M1 10h1M1 11h1M1 12h1M1 13h1M1 14h1M1 15h1M1 16h1M1 17h1M1 18h1M1 19h1M1 20h1M1 21h1M1 22h1M1 23h1M1 24h1M1 25h1M1 26h1M1 27h1M1 28h1M1 29h1M1 30h1M1 31h1M1 32h1M1 33h1M1 34h1M1 35h1M1 36h1M1 37h1M1 38h1M1 39h1M1 40h1M1 41h1M1 42h1M1 43h1M1 44h1M1 45h1M1 46h1M1 47h1M1 48h1M1 49h1M1 50h1M1 51h1M1 52h1M1 53h1M1 54h1M1 55h1M1 56h1M1 57h1M1 58h1M1 59h1M1 60h1M1 61h1M1 62h1M1 63h1M1 64h1M1 65h1M1 66h1M1 67h1M1 68h1M1 69h1M1 70h1M1 71h1M1 72h1M1 73h1M1 74h1M1 75h1M1 76h1M1 77h1M1 78h1M1 79h1M1 80h1M1 81h1M1 82h1M1 83h1M1 84h1M1 85h1M1 86h1M1 87h1M1 88h1M1 89h1M1 90h1M1 91h1M1 92h1M1 93h1M1 94h1M1 95h1M1 96h1M1 97h1M1 98h1" />
<path stroke="#fefeff" d="M97 2h1" />
<path stroke="#f7f5f7" d="M98 2h1" />
<path stroke="#c3b5be" d="M99 2h1" />
<path stroke="#ddd1da" d="M0 3h1M0 4h1M0 5h1M0 6h1M0 7h1M0 8h1M0 9h1M0 10h1M0 11h1M0 12h1M0 13h1M0 14h1M0 15h1M0 16h1M0 17h1M0 18h1M0 19h1M0 20h1M0 21h1M0 22h1M0 23h1M0 24h1M0 25h1M0 26h1M0 27h1M0 28h1M0 29h1M0 30h1M0 31h1M0 32h1M0 33h1M0 34h1M0 35h1M0 36h1M0 37h1M0 38h1M0 39h1M0 40h1M0 41h1M0 42h1M0 43h1M0 44h1M0 45h1M0 46h1M0 47h1M0 48h1M0 49h1M0 50h1M0 51h1M0 52h1M0 53h1M0 54h1M0 55h1M0 56h1M0 57h1M0 58h1M0 59h1M0 60h1M0 61h1M0 62h1M0 63h1M0 64h1M0 65h1M0 66h1M0 67h1M0 68h1M0 69h1M0 70h1M0 71h1M0 72h1M0 73h1M0 74h1M0 75h1M0 76h1M0 77h1M0 78h1M0 79h1M0 80h1M0 81h1M0 82h1M0 83h1M0 84h1M0 85h1M0 86h1M0 87h1M0 88h1M0 89h1M0 90h1M0 91h1M0 92h1M0 93h1M0 94h1M0 95h1M0 96h1M0 97h1M0 98h1" />
<path stroke="#fdfcfd" d="M2 3h94M2 4h93M2 5h3M2 6h2M2 7h2M2 8h2M2 9h2M2 10h2M2 11h2M2 12h2M2 13h2M2 14h2M2 15h2M2 16h2M2 17h2M2 18h2M2 19h2M2 20h2M2 21h2M2 22h2M2 23h2M2 24h2M2 25h2M2 26h2M2 27h2M2 28h2M2 29h2M2 30h2M2 31h2M2 32h2M2 33h2M2 34h2M2 35h2M2 36h2M2 37h2M2 38h2M2 39h2M2 40h2M2 41h2M2 42h2M2 43h2M2 44h2M2 45h2M2 46h2M2 47h2M2 48h2M2 49h2M2 50h2M2 51h2M2 52h2M2 53h2M2 54h2M2 55h2M2 56h2M2 57h2M2 58h2M2 59h2M2 60h2M2 61h2M2 62h2M2 63h2M2 64h2M2 65h2M2 66h2M2 67h2M2 68h2M2 69h2M2 70h2M2 71h2M2 72h2M2 73h2M2 74h2M2 75h2M2 76h2M2 77h2M2 78h2M2 79h2M2 80h2M2 81h2M2 82h2M2 83h2M2 84h2M2 85h2M2 86h2M2 87h2M2 88h2M2 89h2M2 90h2M2 91h2M2 92h2M2 93h2M2 94h2M2 95h2" />
<path stroke="#ffffff" d="M96 3h1M95 4h1M6 5h89M4 7h1M4 8h1M4 9h1M4 10h1M4 11h1M4 12h1M4 13h1M4 14h1M4 15h1M4 16h1M4 17h1M4 18h1M4 19h1M4 20h1M4 21h1M4 22h1M4 23h1M4 24h1M4 25h1M4 26h1M4 27h1M4 28h1M4 29h1M4 30h1M4 31h1M4 32h1M4 33h1M4 34h1M4 35h1M4 36h1M4 37h1M4 38h1M4 39h1M4 40h1M4 41h1M4 42h1M4 43h1M4 44h1M4 45h1M4 46h1M4 47h1M4 48h1M4 49h1M4 50h1M4 51h1M4 52h1M4 53h1M4 54h1M4 55h1M4 56h1M4 57h1M4 58h1M4 59h1M4 60h1M4 61h1M4 62h1M4 63h1M4 64h1M4 65h1M4 66h1M4 67h1M4 68h1M4 69h1M4 70h1M4 71h1M4 72h1M4 73h1M4 74h1M4 75h1M4 76h1M4 77h1M4 78h1M4 79h1M4 80h1M4 81h1M4 82h1M4 83h1M4 84h1M4 85h1M4 86h1M4 87h1M4 88h1M4 89h1M4 90h1M4 91h1M4 92h1M4 93h1M4 94h1M4 95h1M3 96h1M2 97h1" />
<path stroke="#f6f3f6" d="M97 3h1" />
<path stroke="#c3b4bf" d="M98 3h1" />
<path stroke="#5f5961" d="M99 3h1" />
<path stroke="#f5f1f4" d="M96 4h1" />
<path stroke="#c0b3bd" d="M97 4h1" />
<path stroke="#625a62" d="M98 4h1" />
<path stroke="#2f2e33" d="M99 4h1" />
<path stroke="#f4eef2" d="M95 5h1" />
<path stroke="#bbb0b9" d="M96 5h1" />
<path stroke="#685f68" d="M97 5h1" />
<path stroke="#2e2c32" d="M98 5h1" />
<path stroke="#232328" d="M99 5h1M97 8h1M97 9h1M97 10h1M97 11h1M97 12h1M97 13h1M97 14h1M97 15h1M97 16h1M97 17h1M97 18h1M97 19h1M97 20h1M97 21h1M97 22h1M97 23h1M97 24h1M97 25h1M97 26h1M97 27h1M97 28h1M97 29h1M97 30h1M97 31h1M97 32h1M97 33h1M97 34h1M97 35h1M97 36h1M97 37h1M97 38h1M97 39h1M97 40h1M97 41h1M97 42h1M97 43h1M97 44h1M97 45h1M97 46h1M97 47h1M97 48h1M97 49h1M97 50h1M97 51h1M97 52h1M97 53h1M97 54h1M97 55h1M97 56h1M97 57h1M97 58h1M97 59h1M97 60h1M97 61h1M97 62h1M97 63h1M97 64h1M97 65h1M97 66h1M97 67h1M97 68h1M97 69h1M97 70h1M97 71h1M97 72h1M97 73h1M97 74h1M97 75h1M97 76h1M97 77h1M97 78h1M97 79h1M97 80h1M97 81h1M97 82h1M97 83h1M97 84h1M97 85h1M97 86h1M97 87h1M97 88h1M97 89h1M97 90h1M97 91h1M97 92h1M97 93h1M97 94h1M97 95h1" />
<path stroke="#f8f5f7" d="M5 6h1" />
<path stroke="#e9e3e8" d="M6 6h1" />
<path stroke="#e5dee4" d="M7 6h87" />
<path stroke="#e8e1e7" d="M94 6h1" />
<path stroke="#bfb3bd" d="M95 6h1" />
<path stroke="#726872" d="M96 6h1" />
<path stroke="#2c2a30" d="M97 6h1" />
<path stroke="#222227" d="M98 6h1M6 97h1" />
<path stroke="#242429" d="M99 6h1M97 96h1M96 97h1M5 99h1" />
<path stroke="#f0eaee" d="M5 7h1" />
<path stroke="#c9bac6" d="M6 7h1" />
<path stroke="#b9aebb" d="M7 7h1M93 7h1" />
<path stroke="#b9adbb" d="M8 7h85" />
<path stroke="#bdaebc" d="M94 7h1" />
<path stroke="#857985" d="M95 7h1" />
<path stroke="#403b43" d="M96 7h1" />
<path stroke="#1f2024" d="M97 7h1" />
<path stroke="#25252a" d="M98 7h2M98 8h2M98 9h2M98 10h2M98 11h2M98 12h2M98 13h2M98 14h2M98 15h2M98 16h2M98 17h2M98 18h2M98 19h2M98 20h2M98 21h2M98 22h2M98 23h2M98 24h2M98 25h2M98 26h2M98 27h2M98 28h2M98 29h2M98 30h2M98 31h2M98 32h2M98 33h2M98 34h2M98 35h2M98 36h2M98 37h2M98 38h2M98 39h2M98 40h2M98 41h2M98 42h2M98 43h2M98 44h2M98 45h2M98 46h2M98 47h2M98 48h2M98 49h2M98 50h2M98 51h2M98 52h2M98 53h2M98 54h2M98 55h2M98 56h2M98 57h2M98 58h2M98 59h2M98 60h2M98 61h2M98 62h2M98 63h2M98 64h2M98 65h2M98 66h2M98 67h2M98 68h2M98 69h2M98 70h2M98 71h2M98 72h2M98 73h2M98 74h2M98 75h2M98 76h2M98 77h2M98 78h2M98 79h2M98 80h2M98 81h2M98 82h2M98 83h2M98 84h2M98 85h2M98 86h2M98 87h2M98 88h2M98 89h2M98 90h2M98 91h2M98 92h2M98 93h2M98 94h2M98 95h2M98 96h2M97 97h3M7 98h93M6 99h94" />
<path stroke="#f1ecf0" d="M5 8h1M5 92h1M5 94h1" />
<path stroke="#cabec9" d="M6 8h1M6 9h1M6 10h1M6 11h1M6 12h1M6 13h1M6 14h1M6 15h1M6 16h1M6 17h1M6 18h1M6 19h1M6 20h1M6 21h1M6 22h1M6 23h1M6 24h1M6 25h1M6 26h1M6 27h1M6 28h1M6 29h1M6 30h1M6 31h1M6 32h1M6 33h1M6 34h1M6 35h1M6 36h1M6 37h1M6 38h1M6 39h1M6 40h1M6 41h1M6 42h1M6 43h1M6 44h1M6 45h1M6 46h1M6 47h1M6 48h1M6 49h1M6 50h1M6 51h1M6 52h1M6 53h1M6 54h1M6 55h1M6 56h1M6 57h1M6 58h1M6 59h1M6 60h1M6 61h1M6 62h1M6 63h1M6 64h1M6 65h1M6 66h1M6 67h1M6 68h1M6 69h1M6 70h1M6 71h1M6 72h1M6 73h1M6 74h1M6 75h1M6 76h1M6 77h1M6 78h1M6 79h1M6 80h1M6 81h1M6 82h1M6 83h1M6 84h1M6 85h1M6 86h1M6 87h1M6 88h1M6 89h1M6 90h1M6 91h1M6 92h1M6 93h1" />
<path stroke="#b3b1bc" d="M7 8h1M9 8h84M7 9h87M7 10h87M7 11h87M7 12h87M7 13h87M7 14h87M7 15h87M7 16h87M7 17h87M7 18h87M7 19h87M7 20h87M7 21h87M7 22h87M7 23h87M7 24h87M7 25h87M7 26h87M7 27h87M7 28h87M7 29h87M7 30h87M7 31h87M7 32h87M7 33h87M7 34h87M7 35h87M7 36h87M7 37h87M7 38h87M7 39h87M7 40h87M7 41h87M7 42h87M7 43h87M7 44h87M7 45h87M7 46h87M7 47h87M7 48h87M7 49h87M7 50h87M7 51h87M7 52h87M7 53h87M7 54h87M7 55h87M7 56h87M7 57h87M7 58h87M7 59h87M7 60h87M7 61h87M7 62h87M7 63h87M7 64h87M7 65h87M7 66h87M7 67h87M7 68h87M7 69h87M7 70h87M7 71h87M7 72h87M7 73h87M7 74h87M7 75h87M7 76h87M7 77h87M7 78h87M7 79h87M7 80h87M7 81h87M7 82h87M7 83h87M7 84h87M7 85h87M7 86h87M7 87h87M7 88h87M7 89h87M7 90h87M7 91h87M7 92h87M7 93h87" />
<path stroke="#b2b1bc" d="M8 8h1M93 8h1" />
<path stroke="#bdb6c3" d="M94 8h1M94 9h1M94 10h1M94 11h1M94 12h1M94 13h1M94 14h1M94 15h1M94 16h1M94 17h1M94 18h1M94 19h1M94 20h1M94 21h1M94 22h1M94 23h1M94 24h1M94 25h1M94 26h1M94 27h1M94 28h1M94 29h1M94 30h1M94 31h1M94 32h1M94 33h1M94 34h1M94 35h1M94 36h1M94 37h1M94 38h1M94 39h1M94 40h1M94 41h1M94 42h1M94 43h1M94 44h1M94 45h1M94 46h1M94 47h1M94 48h1M94 49h1M94 50h1M94 51h1M94 52h1M94 53h1M94 54h1M94 55h1M94 56h1M94 57h1M94 58h1M94 59h1M94 60h1M94 61h1M94 62h1M94 63h1M94 64h1M94 65h1M94 66h1M94 67h1M94 68h1M94 69h1M94 70h1M94 71h1M94 72h1M94 73h1M94 74h1M94 75h1M94 76h1M94 77h1M94 78h1M94 79h1M94 80h1M94 81h1M94 82h1M94 83h1M94 84h1M94 85h1M94 86h1M94 87h1M94 88h1M94 89h1M94 90h1M94 91h1M94 92h1M94 93h1" />
<path stroke="#7b747e" d="M95 8h1M95 9h1" />
<path stroke="#353238" d="M96 8h1" />
<path stroke="#f1ebf0" d="M5 9h1M5 10h1M5 11h1M5 12h1M5 13h1M5 14h1M5 15h1M5 16h1M5 17h1M5 18h1M5 19h1M5 20h1M5 21h1M5 22h1M5 23h1M5 24h1M5 25h1M5 26h1M5 27h1M5 28h1M5 29h1M5 30h1M5 31h1M5 32h1M5 33h1M5 34h1M5 35h1M5 36h1M5 37h1M5 38h1M5 39h1M5 40h1M5 41h1M5 42h1M5 43h1M5 44h1M5 45h1M5 46h1M5 47h1M5 48h1M5 49h1M5 50h1M5 51h1M5 52h1M5 53h1M5 54h1M5 55h1M5 56h1M5 57h1M5 58h1M5 59h1M5 60h1M5 61h1M5 62h1M5 63h1M5 64h1M5 65h1M5 66h1M5 67h1M5 68h1M5 69h1M5 70h1M5 71h1M5 72h1M5 73h1M5 74h1M5 75h1M5 76h1M5 77h1M5 78h1M5 79h1M5 80h1M5 81h1M5 82h1M5 83h1M5 84h1M5 85h1M5 86h1M5 87h1M5 88h1M5 89h1M5 90h1M5 91h1M5 93h1" />
<path stroke="#363239" d="M96 9h1M96 10h1M96 11h1M96 12h1M96 13h1M96 14h1M96 15h1M96 16h1M96 17h1M96 18h1M96 19h1M96 20h1M96 21h1M96 22h1M96 23h1M96 24h1M96 25h1M96 26h1M96 27h1M96 28h1M96 29h1M96 30h1M96 31h1M96 32h1M96 33h1M96 34h1M96 35h1M96 36h1M96 37h1M96 38h1M96 39h1M96 40h1M96 41h1M96 42h1M96 43h1M96 44h1M96 45h1M96 46h1M96 47h1M96 48h1M96 49h1M96 50h1M96 51h1M96 52h1M96 53h1M96 54h1M96 55h1M96 56h1M96 57h1M96 58h1M96 59h1M96 60h1M96 61h1M96 62h1M96 63h1M96 64h1M96 65h1M96 66h1M96 67h1M96 68h1M96 69h1M96 70h1M96 71h1M96 72h1M96 73h1M96 74h1M96 75h1M96 76h1M96 77h1M96 78h1M96 79h1M96 80h1M96 81h1M96 82h1M96 83h1M96 84h1M96 85h1M96 86h1M96 87h1M96 88h1M96 89h1M96 90h1M96 91h1M96 92h1M96 93h1M96 94h1" />
<path stroke="#7c747e" d="M95 10h1M95 11h1M95 12h1M95 13h1M95 14h1M95 15h1M95 16h1M95 17h1M95 18h1M95 19h1M95 20h1M95 21h1M95 22h1M95 23h1M95 24h1M95 25h1M95 26h1M95 27h1M95 28h1M95 29h1M95 30h1M95 31h1M95 32h1M95 33h1M95 34h1M95 35h1M95 36h1M95 37h1M95 38h1M95 39h1M95 40h1M95 41h1M95 42h1M95 43h1M95 44h1M95 45h1M95 46h1M95 47h1M95 48h1M95 49h1M95 50h1M95 51h1M95 52h1M95 53h1M95 54h1M95 55h1M95 56h1M95 57h1M95 58h1M95 59h1M95 60h1M95 61h1M95 62h1M95 63h1M95 64h1M95 65h1M95 66h1M95 67h1M95 68h1M95 69h1M95 70h1M95 71h1M95 72h1M95 73h1M95 74h1M95 75h1M95 76h1M95 77h1M95 78h1M95 79h1M95 80h1M95 81h1M95 82h1M95 83h1M95 84h1M95 85h1M95 86h1M95 87h1M95 88h1M95 89h1M95 90h1M95 91h1M95 92h1M95 93h1" />
<path stroke="#cbbeca" d="M6 94h1" />
<path stroke="#b4b3be" d="M7 94h1M9 94h85" />
<path stroke="#b4b2bd" d="M8 94h1" />
<path stroke="#beb8c5" d="M94 94h1" />
<path stroke="#7c757f" d="M95 94h1" />
<path stroke="#f0ebef" d="M5 95h1" />
<path stroke="#c3b2c0" d="M6 95h1" />
<path stroke="#b1a7b3" d="M7 95h1" />
<path stroke="#aea4b0" d="M8 95h1" />
<path stroke="#aea3b0" d="M9 95h85" />
<path stroke="#baacbb" d="M94 95h1" />
<path stroke="#79707a" d="M95 95h1" />
<path stroke="#343238" d="M96 95h1" />
<path stroke="#fdfdfd" d="M2 96h1" />
<path stroke="#bfb5bd" d="M5 96h1" />
<path stroke="#726772" d="M6 96h1" />
<path stroke="#655e66" d="M7 96h1" />
<path stroke="#635b64" d="M8 96h2M92 96h2" />
<path stroke="#635b65" d="M10 96h82" />
<path stroke="#69606a" d="M94 96h1" />
<path stroke="#4b464e" d="M95 96h1" />
<path stroke="#2b2b30" d="M96 96h1" />
<path stroke="#f7f3f6" d="M3 97h1" />
<path stroke="#c0b6be" d="M4 97h1" />
<path stroke="#695f69" d="M5 97h1" />
<path stroke="#1c1d21" d="M7 97h87" />
<path stroke="#1b1c21" d="M94 97h1" />
<path stroke="#1f2025" d="M95 97h1" />
<path stroke="#faf7f9" d="M2 98h1" />
<path stroke="#c4b6c0" d="M3 98h1" />
<path stroke="#655b65" d="M4 98h1" />
<path stroke="#242328" d="M5 98h1" />
<path stroke="#232429" d="M6 98h1" />
<path stroke="#ded2db" d="M0 99h1" />
<path stroke="#fbf9fb" d="M1 99h1" />
<path stroke="#c6b6c2" d="M2 99h1" />
<path stroke="#5d565e" d="M3 99h1" />
<path stroke="#29282d" d="M4 99h1" />
</svg>