<svg xmlns="http://www.w3.org/2000/svg" viewBox="0 -0.5 86 86" shape-rendering="crispEdges">
<metadata>Made with Pixels to Svg https://codepen.io/shshaw/pen/XbxvNj</metadata>
<path stroke="#bfa6b7" d="M0 0h1M0 84h1M0 85h1" />
<path stroke="#c3acbc" d="M1 0h1" />
<path stroke="#c8b5c3" d="M2 0h82" />
<path stroke="#cbb9c6" d="M84 0h1" />
<path stroke="#c6b2c1" d="M85 0h1" />
<path stroke="#bea5b6" d="M0 1h1M0 2h1M0 3h1M0 4h1M0 5h1M0 6h1M0 7h1M0 8h1M0 9h1M0 10h1M0 11h1M0 12h1M0 13h1M0 14h1M0 15h1M0 16h1M0 17h1M0 18h1M0 19h1M0 20h1M0 21h1M0 22h1M0 23h1M0 24h1M0 25h1M0 26h1M0 27h1M0 28h1M0 29h1M0 30h1M0 31h1M0 32h1M0 33h1M0 34h1M0 35h1M0 36h1M0 37h1M0 38h1M0 39h1M0 40h1M0 41h1M0 42h1M0 43h1M0 44h1M0 45h1M0 46h1M0 47h1M0 48h1M0 49h1M0 50h1M0 51h1M0 52h1M0 53h1M0 54h1M0 55h1M0 56h1M0 57h1M0 58h1M0 59h1M0 60h1M0 61h1M0 62h1M0 63h1M0 64h1M0 65h1M0 66h1M0 67h1M0 68h1M0 69h1M0 70h1M0 71h1M0 72h1M0 73h1M0 74h1M0 75h1M0 76h1M0 77h1M0 78h1M0 79h1M0 80h1M0 81h1M0 82h1M0 83h1" />
<path stroke="#c8b3c0" d="M1 1h1" />
<path stroke="#f6f4f6" d="M2 1h1" />
<path stroke="#f8f6f8" d="M3 1h80" />
<path stroke="#fdfcfd" d="M83 1h1M81 2h1M3 3h78M3 4h4M3 5h3M3 6h2M3 7h2M3 8h2M3 9h2M3 10h2M3 11h2M3 12h2M3 13h2M3 14h2M3 15h2M3 16h2M3 17h2M3 18h2M3 19h2M3 20h2M3 21h2M3 22h2M3 23h2M3 24h2M3 25h2M3 26h2M3 27h2M3 28h2M3 29h2M3 30h2M3 31h2M3 32h2M3 33h2M3 34h2M3 35h2M3 36h2M3 37h2M3 38h2M3 39h2M3 40h2M3 41h2M3 42h2M3 43h2M3 44h2M3 45h2M3 46h2M3 47h2M3 48h2M3 49h2M3 50h2M3 51h2M3 52h2M3 53h2M3 54h2M3 55h2M3 56h2M3 57h2M3 58h2M3 59h2M3 60h2M3 61h2M3 62h2M3 63h2M3 64h2M3 65h2M3 66h2M3 67h2M3 68h2M3 69h2M3 70h2M3 71h2M3 72h2M3 73h2M3 74h2M3 75h2M3 76h2M3 77h2M3 78h2M3 79h2M3 80h1" />
<path stroke="#cec1cb" d="M84 1h1M3 85h1" />
<path stroke="#ae99a8" d="M85 1h1" />
<path stroke="#c8b4c1" d="M1 2h1M1 3h1M1 4h1M1 5h1M1 6h1M1 7h1M1 8h1M1 9h1M1 10h1M1 11h1M1 12h1M1 13h1M1 14h1M1 15h1M1 16h1M1 17h1M1 18h1M1 19h1M1 20h1M1 21h1M1 22h1M1 23h1M1 24h1M1 25h1M1 26h1M1 27h1M1 28h1M1 29h1M1 30h1M1 31h1M1 32h1M1 33h1M1 34h1M1 35h1M1 36h1M1 37h1M1 38h1M1 39h1M1 40h1M1 41h1M1 42h1M1 43h1M1 44h1M1 45h1M1 46h1M1 47h1M1 48h1M1 49h1M1 50h1M1 51h1M1 52h1M1 53h1M1 54h1M1 55h1M1 56h1M1 57h1M1 58h1M1 59h1M1 60h1M1 61h1M1 62h1M1 63h1M1 64h1M1 65h1M1 66h1M1 67h1M1 68h1M1 69h1M1 70h1M1 71h1M1 72h1M1 73h1M1 74h1M1 75h1M1 76h1M1 77h1M1 78h1M1 79h1M1 80h1M1 81h1M1 82h1" />
<path stroke="#fbfafb" d="M2 2h1M2 3h1M2 4h1M2 5h1M2 6h1M2 7h1M2 8h1M2 9h1M2 10h1M2 11h1M2 12h1M2 13h1M2 14h1M2 15h1M2 16h1M2 17h1M2 18h1M2 19h1M2 20h1M2 21h1M2 22h1M2 23h1M2 24h1M2 25h1M2 26h1M2 27h1M2 28h1M2 29h1M2 30h1M2 31h1M2 32h1M2 33h1M2 34h1M2 35h1M2 36h1M2 37h1M2 38h1M2 39h1M2 40h1M2 41h1M2 42h1M2 43h1M2 44h1M2 45h1M2 46h1M2 47h1M2 48h1M2 49h1M2 50h1M2 51h1M2 52h1M2 53h1M2 54h1M2 55h1M2 56h1M2 57h1M2 58h1M2 59h1M2 60h1M2 61h1M2 62h1M2 63h1M2 64h1M2 65h1M2 66h1M2 67h1M2 68h1M2 69h1M2 70h1M2 71h1M2 72h1M2 73h1M2 74h1M2 75h1M2 76h1M2 77h1M2 78h1M2 79h1M2 80h1M2 81h1" />
<path stroke="#fdfdfd" d="M3 2h78" />
<path stroke="#ffffff" d="M82 2h1M81 3h1M80 4h1M5 79h1M4 80h1M3 81h1" />
<path stroke="#d7c9d3" d="M83 2h1M82 3h1M81 4h1" />
<path stroke="#625b63" d="M84 2h1" />
<path stroke="#968592" d="M85 2h1" />
<path stroke="#665e67" d="M83 3h1M82 4h1" />
<path stroke="#26262b" d="M84 3h1M81 80h1" />
<path stroke="#91818e" d="M85 3h1" />
<path stroke="#fefdfe" d="M7 4h73M5 78h1" />
<path stroke="#2b2a30" d="M83 4h1M82 5h1M81 9h1M81 10h1M81 11h1M81 12h1M81 13h1M81 14h1M81 15h1M81 16h1M81 17h1M81 18h1M81 19h1M81 20h1M81 21h1M81 22h1M81 23h1M81 24h1M81 25h1M81 26h1M81 27h1M81 28h1M81 29h1M81 30h1M81 31h1M81 32h1M81 33h1M81 34h1M81 35h1M81 36h1M81 37h1M81 38h1M81 39h1M81 40h1M81 41h1M81 42h1M81 43h1M81 44h1M81 45h1M81 46h1M81 47h1M81 48h1M81 49h1M81 50h1M81 51h1M81 52h1M81 53h1M81 54h1M81 55h1M81 56h1M81 57h1M81 58h1M81 59h1M81 60h1M81 61h1M81 62h1M81 63h1M81 64h1M81 65h1M81 66h1M81 67h1M81 68h1M81 69h1M81 70h1M81 71h1M81 72h1M81 73h1M81 74h1M81 75h1M81 76h1M81 77h1M81 78h1" />
<path stroke="#202025" d="M84 4h1" />
<path stroke="#91828e" d="M85 4h1M85 82h1" />
<path stroke="#f9f7f8" d="M6 5h1" />
<path stroke="#eee7ed" d="M7 5h1" />
<path stroke="#eee6ed" d="M8 5h71" />
<path stroke="#efe8ee" d="M79 5h1" />
<path stroke="#d1c2cd" d="M80 5h1" />
<path stroke="#665e66" d="M81 5h1" />
<path stroke="#25252a" d="M83 5h1M83 6h1M82 7h2M82 8h2M82 9h2M82 10h2M82 11h2M82 12h2M82 13h2M82 14h2M82 15h2M82 16h2M82 17h2M82 18h2M82 19h2M82 20h2M82 21h2M82 22h2M82 23h2M82 24h2M82 25h2M82 26h2M82 27h2M82 28h2M82 29h2M82 30h2M82 31h2M82 32h2M82 33h2M82 34h2M82 35h2M82 36h2M82 37h2M82 38h2M82 39h2M82 40h2M82 41h2M82 42h2M82 43h2M82 44h2M82 45h2M82 46h2M82 47h2M82 48h2M82 49h2M82 50h2M82 51h2M82 52h2M82 53h2M82 54h2M82 55h2M82 56h2M82 57h2M82 58h2M82 59h2M82 60h2M82 61h2M82 62h2M82 63h2M82 64h2M82 65h2M82 66h2M82 67h2M82 68h2M82 69h2M82 70h2M82 71h2M82 72h2M82 73h2M82 74h2M82 75h2M82 76h2M82 77h2M82 78h2M82 79h2M82 80h2M81 81h3M7 82h77" />
<path stroke="#202125" d="M84 5h1M84 6h1M84 7h1M84 8h1M84 9h1M84 10h1M84 11h1M84 12h1M84 13h1M84 14h1M84 15h1M84 16h1M84 17h1M84 18h1M84 19h1M84 20h1M84 21h1M84 22h1M84 23h1M84 24h1M84 25h1M84 26h1M84 27h1M84 28h1M84 29h1M84 30h1M84 31h1M84 32h1M84 33h1M84 34h1M84 35h1M84 36h1M84 37h1M84 38h1M84 39h1M84 40h1M84 41h1M84 42h1M84 43h1M84 44h1M84 45h1M84 46h1M84 47h1M84 48h1M84 49h1M84 50h1M84 51h1M84 52h1M84 53h1M84 54h1M84 55h1M84 56h1M84 57h1M84 58h1M84 59h1M84 60h1M84 61h1M84 62h1M84 63h1M84 64h1M84 65h1M84 66h1M84 67h1M84 68h1M84 69h1M84 70h1M84 71h1M84 72h1M84 73h1M84 74h1M84 75h1M84 76h1M84 77h1M84 78h1M84 79h1M84 80h1M84 81h1M84 82h1" />
<path stroke="#92828e" d="M85 5h1M85 6h1M85 7h1M85 8h1M85 9h1M85 10h1M85 11h1M85 12h1M85 13h1M85 14h1M85 15h1M85 16h1M85 17h1M85 18h1M85 19h1M85 20h1M85 21h1M85 22h1M85 23h1M85 24h1M85 25h1M85 26h1M85 27h1M85 28h1M85 29h1M85 30h1M85 31h1M85 32h1M85 33h1M85 34h1M85 35h1M85 36h1M85 37h1M85 38h1M85 39h1M85 40h1M85 41h1M85 42h1M85 43h1M85 44h1M85 45h1M85 46h1M85 47h1M85 48h1M85 49h1M85 50h1M85 51h1M85 52h1M85 53h1M85 54h1M85 55h1M85 56h1M85 57h1M85 58h1M85 59h1M85 60h1M85 61h1M85 62h1M85 63h1M85 64h1M85 65h1M85 66h1M85 67h1M85 68h1M85 69h1M85 70h1M85 71h1M85 72h1M85 73h1M85 74h1M85 75h1M85 76h1M85 77h1M85 78h1M85 79h1M85 80h1M85 81h1" />
<path stroke="#fdfdfe" d="M5 6h1M5 7h1M5 8h1M5 9h1M5 10h1M5 11h1M5 12h1M5 13h1M5 14h1M5 15h1M5 16h1M5 17h1M5 18h1M5 19h1M5 20h1M5 21h1M5 22h1M5 23h1M5 24h1M5 25h1M5 26h1M5 27h1M5 28h1M5 29h1M5 30h1M5 31h1M5 32h1M5 33h1M5 34h1M5 35h1M5 36h1M5 37h1M5 38h1M5 39h1M5 40h1M5 41h1M5 42h1M5 43h1M5 44h1M5 45h1M5 46h1M5 47h1M5 48h1M5 49h1M5 50h1M5 51h1M5 52h1M5 53h1M5 54h1M5 55h1M5 56h1M5 57h1M5 58h1M5 59h1M5 60h1M5 61h1M5 62h1M5 63h1M5 64h1M5 65h1M5 66h1M5 67h1M5 68h1M5 69h1M5 70h1M5 71h1M5 72h1M5 73h1M5 74h1M5 75h1M5 76h1M5 77h1" />
<path stroke="#e5dce3" d="M6 6h1" />
<path stroke="#bdb3c0" d="M7 6h1" />
<path stroke="#bab4bf" d="M8 6h71" />
<path stroke="#bcb5c1" d="M79 6h1" />
<path stroke="#a0919e" d="M80 6h1" />
<path stroke="#302e34" d="M81 6h1" />
<path stroke="#242429" d="M82 6h1M6 82h1" />
<path stroke="#e3d9e0" d="M6 7h1" />
<path stroke="#b5afbb" d="M7 7h1" />
<path stroke="#b3b0bb" d="M8 7h71" />
<path stroke="#b5b3be" d="M79 7h1M79 8h1M79 9h1M79 10h1M79 11h1M79 12h1M79 13h1M79 14h1M79 15h1M79 16h1M79 17h1M79 18h1M79 19h1M79 20h1M79 21h1M79 22h1M79 23h1M79 24h1M79 25h1M79 26h1M79 27h1M79 28h1M79 29h1M79 30h1M79 31h1M79 32h1M79 33h1M79 34h1M79 35h1M79 36h1M79 37h1M79 38h1M79 39h1M79 40h1M79 41h1M79 42h1M79 43h1M79 44h1M79 45h1M79 46h1M79 47h1M79 48h1M79 49h1M79 50h1M79 51h1M79 52h1M79 53h1M79 54h1M79 55h1M79 56h1M79 57h1M79 58h1M79 59h1M79 60h1M79 61h1M79 62h1M79 63h1M79 64h1M79 65h1M79 66h1M79 67h1M79 68h1M79 69h1M79 70h1M79 71h1M79 72h1M79 73h1M79 74h1M79 75h1M79 76h1M79 77h1" />
<path stroke="#8c808b" d="M80 7h1" />
<path stroke="#2b2a2f" d="M81 7h1M81 8h1" />
<path stroke="#e3dae0" d="M6 8h1M6 9h1M6 10h1M6 11h1M6 12h1M6 13h1M6 14h1M6 15h1M6 16h1M6 17h1M6 18h1M6 19h1M6 20h1M6 21h1M6 22h1M6 23h1M6 24h1M6 25h1M6 26h1M6 27h1M6 28h1M6 29h1M6 30h1M6 31h1M6 32h1M6 33h1M6 34h1M6 35h1M6 36h1M6 37h1M6 38h1M6 39h1M6 40h1M6 41h1M6 42h1M6 43h1M6 44h1M6 45h1M6 46h1M6 47h1M6 48h1M6 49h1M6 50h1M6 51h1M6 52h1M6 53h1M6 54h1M6 55h1M6 56h1M6 57h1M6 58h1M6 59h1M6 60h1M6 61h1M6 62h1M6 63h1M6 64h1M6 65h1M6 66h1M6 67h1M6 68h1M6 69h1M6 70h1M6 71h1M6 72h1M6 73h1M6 74h1M6 75h1M6 76h1" />
<path stroke="#b5b0bc" d="M7 8h1M7 9h1M7 10h1M7 11h1M7 12h1M7 13h1M7 14h1M7 15h1M7 16h1M7 17h1M7 18h1M7 19h1M7 20h1M7 21h1M7 22h1M7 23h1M7 24h1M7 25h1M7 26h1M7 27h1M7 28h1M7 29h1M7 30h1M7 31h1M7 32h1M7 33h1M7 34h1M7 35h1M7 36h1M7 37h1M7 38h1M7 39h1M7 40h1M7 41h1M7 42h1M7 43h1M7 44h1M7 45h1M7 46h1M7 47h1M7 48h1M7 49h1M7 50h1M7 51h1M7 52h1M7 53h1M7 54h1M7 55h1M7 56h1M7 57h1M7 58h1M7 59h1M7 60h1M7 61h1M7 62h1M7 63h1M7 64h1M7 65h1M7 66h1M7 67h1M7 68h1M7 69h1M7 70h1M7 71h1M7 72h1M7 73h1M7 74h1M7 75h1M7 76h1M7 77h1" />
<path stroke="#b3b1bc" d="M8 8h71M8 9h71M8 10h71M8 11h71M8 12h71M8 13h71M8 14h71M8 15h71M8 16h71M8 17h71M8 18h71M8 19h71M8 20h71M8 21h71M8 22h71M8 23h71M8 24h71M8 25h71M8 26h71M8 27h71M8 28h71M8 29h71M8 30h71M8 31h71M8 32h71M8 33h71M8 34h71M8 35h71M8 36h71M8 37h71M8 38h71M8 39h71M8 40h71M8 41h71M8 42h71M8 43h71M8 44h71M8 45h71M8 46h71M8 47h71M8 48h71M8 49h71M8 50h71M8 51h71M8 52h71M8 53h71M8 54h71M8 55h71M8 56h71M8 57h71M8 58h71M8 59h71M8 60h71M8 61h71M8 62h71M8 63h71M8 64h71M8 65h71M8 66h71M8 67h71M8 68h71M8 69h71M8 70h71M8 71h71M8 72h71M8 73h71M8 74h71M8 75h71M8 76h71M8 77h71" />
<path stroke="#8b7f8a" d="M80 8h1M80 9h1M80 10h1M80 11h1M80 12h1M80 13h1M80 14h1M80 15h1M80 16h1M80 17h1M80 18h1M80 19h1M80 20h1M80 21h1M80 22h1M80 23h1M80 24h1M80 25h1M80 26h1M80 27h1M80 28h1M80 29h1M80 30h1M80 31h1M80 32h1M80 33h1M80 34h1M80 35h1M80 36h1M80 37h1M80 38h1M80 39h1M80 40h1M80 41h1M80 42h1M80 43h1M80 44h1M80 45h1M80 46h1M80 47h1M80 48h1M80 49h1M80 50h1M80 51h1M80 52h1M80 53h1M80 54h1M80 55h1M80 56h1M80 57h1M80 58h1M80 59h1M80 60h1M80 61h1M80 62h1M80 63h1M80 64h1M80 65h1M80 66h1M80 67h1M80 68h1M80 69h1M80 70h1M80 71h1M80 72h1M80 73h1M80 74h1M80 75h1M80 76h1M80 77h1" />
<path stroke="#e4dae0" d="M6 77h1" />
<path stroke="#e6dce3" d="M6 78h1" />
<path stroke="#b8b3bf" d="M7 78h1" />
<path stroke="#b6b5c0" d="M8 78h71" />
<path stroke="#b8b7c2" d="M79 78h1" />
<path stroke="#8e828d" d="M80 78h1" />
<path stroke="#cdbdc7" d="M6 79h1" />
<path stroke="#a094a0" d="M7 79h1" />
<path stroke="#988e9a" d="M8 79h71" />
<path stroke="#9a909c" d="M79 79h1" />
<path stroke="#706671" d="M80 79h1" />
<path stroke="#29292e" d="M81 79h1" />
<path stroke="#d3c6cf" d="M5 80h1M4 81h1" />
<path stroke="#5b545d" d="M6 80h1" />
<path stroke="#3f3b42" d="M7 80h1" />
<path stroke="#3c393f" d="M8 80h71" />
<path stroke="#3c3940" d="M79 80h1" />
<path stroke="#333137" d="M80 80h1" />
<path stroke="#5a535c" d="M5 81h1" />
<path stroke="#27262c" d="M6 81h1" />
<path stroke="#222227" d="M7 81h73" />
<path stroke="#232328" d="M80 81h1" />
<path stroke="#fffeff" d="M2 82h1" />
<path stroke="#d3c6ce" d="M3 82h1" />
<path stroke="#5b545c" d="M4 82h1" />
<path stroke="#27272c" d="M5 82h1" />
<path stroke="#c9b4c3" d="M1 83h1" />
<path stroke="#c9bdc6" d="M2 83h1" />
<path stroke="#524d54" d="M3 83h1" />
<path stroke="#1e1f24" d="M4 83h1" />
<path stroke="#1c1d21" d="M5 83h1" />
<path stroke="#1c1e22" d="M6 83h78" />
<path stroke="#17191d" d="M84 83h1" />
<path stroke="#90808d" d="M85 83h1" />
<path stroke="#bca5b5" d="M1 84h1" />
<path stroke="#a48f9e" d="M2 84h1" />
<path stroke="#786b77" d="M3 84h1" />
<path stroke="#756874" d="M4 84h1M84 84h1" />
<path stroke="#766975" d="M5 84h79" />
<path stroke="#a490a0" d="M85 84h1" />
<path stroke="#c1abba" d="M1 85h1" />
<path stroke="#cebfca" d="M2 85h1" />
<path stroke="#cfc1cb" d="M4 85h79" />
<path stroke="#d0c3cd" d="M83 85h1" />
<path stroke="#d0c2cb" d="M84 85h1" />
<path stroke="#b6a1b0" d="M85 85h1" />
</svg>